# xmcd
#
# Track frame offsets: 
#        150
#        18132
#        37257
#        62070
#        84585
#        95775
#        112215
#        131957
#        153692
#        172742
#        187280
#        206747
#
# Disc length: 2984 seconds
#
# Revision: 0
# Processed by: cddbd v1.5.2PL0 Copyright (c) Steve Scherf et al.
# Submitted via: ExactAudioCopy v0.99pb5
#
DISCID=b40ba60c
DTITLE=Keb' Mo' - "The Door" 
DYEAR=2000
DGENRE=Blues
TTITLE0=The Door
TTITLE1=Loola Loo
TTITLE2=It Hurts Me Too
TTITLE3=Come On Back
TTITLE4=Stand Up (And Be Strong)
TTITLE5=Anyway
TTITLE6=Don't You Know
TTITLE7=It's All Coming Back
TTITLE8=Gimme What You Got
TTITLE9=Mommy Can I Come Home
TTITLE10=Change
TTITLE11=The Beginning
EXTD=
EXTT0=
EXTT1=
EXTT2=
EXTT3=
EXTT4=
EXTT5=
EXTT6=
EXTT7=
EXTT8=
EXTT9=
EXTT10=
EXTT11=
PLAYORDER=
